<svg xmlns="http://www.w3.org/2000/svg" viewBox="0 0 512 512" width="512" height="512">
  <title>Exegete</title>
  <path fill="#47156f" fill-rule="evenodd" d="M326.7 81.4l-3.9-3.7-2-1.8-4.3-3.6-2.2-1.6-2.2-1.6-4.5-3.1-4.8-2.8-2.4-1.2-4.8-2.4-2.5-1.1-2.6-1-5.1-1.9-5.1-1.5-2.7-.7-2.6-.5-5.3-1-5.4-.6-2.7-.2-5.3-.2-2.7 .1-5.4 .3-2.7 .2-2.7 .4-5.3 .9-5.3 1.2-2.6 .7-2.5 .8-5.2 1.8-2.5 1-4.9 2.2-4.9 2.5-2.4 1.3-4.6 2.9-2.3 1.6-4.4 3.2-2.2 1.7-4.1 3.6-2.1 1.9-3.9 3.9-1.9 2.1-3.6 4.2-1.8 2.2-3.3 4.5-1.6 2.3-3 4.7-1.5 2.4-2.7 5-1.3 2.5-2.4 5.1-1.1 2.6-2.1 5.3-.9 2.7-1.8 5.4-.8 2.8-1.4 5.6-.7 2.8-1.1 5.6-.5 2.9-.8 5.7-.3 2.9-.4 5.7-.3 5.9-.1 3.9-12.1 9-9 7-7.5 4.6-4.7 3-4.6 3.1-.7-6.7-.5-7.2-.2-7.1-.1-7.2 .3-7.2 .4-7.2 .7-7.2 .5-3.6 1.1-7.1 1.4-7.2 1.7-7.1 1-3.5 2.1-7 2.4-6.9 2.7-6.9 1.4-3.3 3.1-6.7 3.4-6.5 3.8-6.4 1.9-3.2 4.2-6.1 2.2-3 4.6-5.9 2.4-2.8 5-5.6 5.3-5.3 5.5-5 2.9-2.4 5.9-4.7 3.1-2.2 6.3-4.1 3.3-2 3.2-1.8 3.4-1.8 3.4-1.7 3.4-1.6 3.5-1.5 3.6-1.4 3.5-1.3 3.6-1.2 3.7-1.1 3.7-1.1 3.7-.9 3.7-.8 3.7-.7 3.8-.5 3.8-.5 3.8-.4 3.8-.3 3.8-.1 3.9-.1 3.8 .1 3.8 .2 3.8 .3 3.8 .4 3.8 .5 3.8 .6 3.7 .7 3.7 .8 3.8 .9 3.6 1.1 3.7 1.1 3.6 1.2 3.5 1.4 3.6 1.4 3.4 1.5 3.5 1.6 3.4 1.7 3.3 1.8 3.3 1.9 3.2 2 3.2 2 3.1 2.2 6 4.5 3 2.3 5.6 5 2.8 2.5 5.2 5.3 2.6 2.8 4.8 5.7 4.6 5.8 4 5.9-5.5 .5-5.6 .7-5.4 .9-3.3 .6-5.5 .1-6.2 .3-6.1 .5-6.1 .7zM89.4 376.5l1 5.3 .5 2.7 1.4 5.4 .8 2.6 1.8 5.2 1 2.5 2.1 5.1 1.2 2.4 1.3 2.4 2.6 4.8 3 4.5 1.5 2.2 3.3 4.3 1.8 2.1 1.8 2 3.7 3.9 4 3.7 2 1.7 2.1 1.7 4.4 3.2 2.2 1.5 4.6 2.8 2.4 1.2 4.8 2.4 5 2.2 2.5 .9 2.6 .9 5.2 1.5 2.6 .7 5.3 1.1 5.4 .9 2.7 .3 5.5 .4 2.7 .1 5.5-.1 2.8-.1 5.5-.5 2.7-.3 5.5-.9 2.7-.5 5.4-1.3 2.7-.7 5.4-1.7 2.6-.9 5.2-2 2.6-1.2 5.1-2.4 2.6-1.2 4.9-2.8 2.5-1.4 4.8-3.1 2.3-1.6 4.6-3.4 2.3-1.7 4.4-3.7 2.2-1.9 4.2-3.9 2.1-2 4-4.2 1.9-2.1 3.8-4.4 3.7-4.6 2.3-3.1 15.2-.2 11.3-.4 8.8 .7 5.5 .3 5.6 .2-3.4 5.9-3.8 6.1-4 5.9-4.2 5.8-4.4 5.7-4.6 5.6-4.8 5.4-2.5 2.6-5.1 5.2-5.4 4.9-5.5 4.8-2.8 2.2-5.9 4.5-6 4.2-6.2 3.9-3.1 1.9-6.5 3.5-6.6 3.3-6.7 3-3.5 1.4-6.9 2.5-3.6 1.2-7.1 2-3.7 .9-7.3 1.6-7.4 1.1-7.4 .9-3.8 .2-7.5 .3-3.8-.1-7.5-.3-3.8-.3-3.7-.5-3.8-.5-3.7-.6-3.8-.8-3.7-.8-3.6-.9-3.7-1.1-3.6-1.1-3.6-1.2-3.6-1.4-3.5-1.4-3.5-1.6-3.5-1.6-3.4-1.8-3.3-1.8-3.3-1.9-3.3-2.1-3.1-2.1-3.2-2.2-3-2.3-3-2.4-2.9-2.5-2.9-2.5-2.7-2.6-2.7-2.7-2.6-2.8-2.6-2.9-2.4-2.9-2.4-3-2.3-3.1-2.1-3.1-2.2-3.1-2-3.3-1.9-3.2-1.8-3.4-1.7-3.3-1.7-3.4-1.5-3.5-1.5-3.5-1.4-3.5-1.2-3.6-2.3-7.2-.9-3.6-1.7-7.3-.7-3.7-1.2-7.4-.4-3.7-.6-7.4-.2-7.5 .1-7.1 4.8 2.8 4.9 2.7 5 2.5 2.9 1.4 4.6 3.2 5.1 3.4 5.3 3.2 5.3 3zM321.8 341l4.9-14.8 10-31 11.2-34 3.8-12.1 2.6-9 2.4-9 2.1-8.9 1.2-5.9 1.1-5.9 .9-5.9 1-8.8 .6-8.9 .2-8.8-.1-5.8-.4-5.8-.5-5.8-.4-2.9-.8-5.7-.5-2.8-.6-2.9-1.2-5.4 5.1 .3 5.2 .6 5.2 .7 5.2 1 5.3 1.2 2.6 .8 2.7 .8 5.3 1.8 5.3 2.2 .7 5.9 .4 3.6 .5 7.2 .2 3.6 .2 7.2-.1 7.2-.3 7.1-.3 3.6-.6 7.1-.9 7.1-1 6.9-1.3 7-2.2 10.2-2.4 10.1-2.8 9.9-1.9 6.5-3 9.6-12.2 37.3-8.4 26.1-5.7 1.6-5.6 1.4-5.6 1.1-5.5 1-5.5 .8-5.4 .7-5.4 .5z"/>
  <path fill="#fd8c68" fill-rule="evenodd" d="M159.6 246.7l4.7 14.9 10.1 31 11 34.1 4 12 3.2 8.8 3.3 8.7 3.5 8.4 2.5 5.5 2.6 5.4 2.8 5.3 4.4 7.8 4.7 7.5 5 7.2 3.5 4.6 3.7 4.5 3.9 4.4 1.9 2.1 4.1 4.1 2.1 2 2.1 2 4.2 3.6-4.4 2.8-4.5 2.6-4.6 2.5-4.8 2.3-5 2.1-2.6 .9-2.6 .9-5.3 1.6-5.6 1.4-4.1-4.3-2.4-2.7-4.7-5.6-2.3-2.8-4.3-5.7-4.2-5.8-3.9-6-1.9-3-3.7-6.2-3.4-6.2-3.3-6.3-3-6.3-4.3-9.6-3.9-9.6-3.6-9.6-2.3-6.4-3.2-9.5-12-37.4-8.6-26.1 3.7-4.6 3.7-4.4 3.8-4.2 3.9-4 4-3.9 4-3.7 4-3.6zM308.2 459.6l5.3 .8 2.8 .3 5.5 .3 2.7 .1 2.8 0 5.4-.3 5.5-.5 2.7-.3 5.3-1 2.7-.6 2.6-.6 5.2-1.5 5.1-1.9 2.5-1 4.9-2.2 2.5-1.2 4.7-2.6 2.3-1.5 2.2-1.4 4.4-3.2 4.1-3.4 2.1-1.8 1.9-1.8 3.8-3.9 1.8-2 3.4-4.2 3.2-4.3 1.5-2.3 1.5-2.3 2.7-4.7 1.3-2.4 2.3-5 2-5 1-2.6 1.6-5.2 .8-2.7 1.2-5.4 .6-2.7 .8-5.5 .4-2.7 .4-5.6 .2-2.8 0-5.5 0-2.9-.4-5.6-.2-2.8-.7-5.6-.5-2.8-1-5.5-.7-2.8-1.4-5.5-.8-2.7-1.8-5.5-.9-2.7-2.1-5.3-1.2-2.6-2.4-5.3-1.3-2.6-2.7-5.1-1.4-2.5-3.1-4.9-3.2-4.9-2.2-3.3 4.5-14.4 3.1-10.9 3.4-8.1 2-5.2 1.9-5.2 4.6 5.1 4.5 5.4 4.5 5.7 4.2 5.7 4.1 6 3.8 6.1 3.7 6.2 1.7 3.2 3.3 6.5 3.1 6.6 2.8 6.7 1.3 3.4 2.4 6.9 2.1 7 1.9 7.1 .8 3.6 1.4 7.2 1 7.3 .8 7.4 .3 3.7 .2 7.4 0 3.7-.3 7.5-.2 3.7-.8 7.4-1.2 7.4-1.5 7.4-.9 3.6-2.1 7.2-1.2 3.6-2.7 7.1-1.5 3.5-1.5 3.4-1.7 3.4-1.7 3.4-1.9 3.3-1.9 3.3-2 3.2-2.2 3.1-2.2 3.1-2.3 3.1-2.3 3-2.5 2.9-2.6 2.8-2.6 2.8-2.7 2.7-2.8 2.6-2.8 2.5-3 2.5-3 2.4-3 2.2-3.2 2.2-3.2 2.1-3.2 2-3.3 2-3.4 1.8-3.4 1.7-3.4 1.6-3.5 1.6-3.6 1.4-3.5 1.3-3.7 1.2-3.6 1.1-3.7 1.1-3.6 .9-3.8 .8-3.7 .7-3.7 .6-3.8 .5-3.7 .4-3.8 .3-3.8 .2-3.8 .1-7.5 0-3.8-.2-7.4-.7-3.8-.5-7.3-1.2-3.7-.7-7.3-1.8-7.1-2-6.7-2.3 4.2-3.8 4-3.8 3.9-3.9 2.3-2.4 4.4-3.4 4.8-3.8 4.7-4 4.5-4.1zM346.2 227.7l-12.5-9.3-26.4-19.1-28.9-21.1-10.4-7.4-7.7-5.3-7.8-5-7.8-4.8-5.3-3-5.2-2.8-5.4-2.7-8.1-3.7-8.2-3.3-8.3-2.8-5.6-1.7-5.6-1.5-5.7-1.3-2.8-.5-2.9-.5-5.7-.9-2.9-.3-5.5-.5 1.9-4.8 2.1-4.8 2.3-4.7 2.6-4.7 2.8-4.6 1.5-2.2 1.6-2.3 3.3-4.5 3.7-4.4 5.9 1.2 3.6 .7 7 1.7 3.5 1 6.9 2 6.8 2.3 6.7 2.5 3.3 1.4 6.5 2.8 6.5 3 6.3 3.2 6.2 3.3 9.1 5.2 8.8 5.5 8.6 5.7 5.5 3.8 8.3 5.8 31.6 23.1 22.3 16.1-.3 5.9-.4 5.8-.6 5.6-.8 5.5-.9 5.5-1.1 5.4-1.1 5.3zM100.9 142.8l-4.8 2.5-2.4 1.4-4.6 3-2.3 1.5-4.4 3.3-2.1 1.7-2.1 1.8-4 3.7-3.8 3.9-1.8 2.1-3.4 4.2-1.6 2.1-3.1 4.5-1.4 2.3-2.7 4.7-1.2 2.4-2.3 4.9-1 2.5-.9 2.5-1.7 5.1-1.4 5.2-.6 2.7-.5 2.6-.8 5.3-.2 2.7-.4 5.4 0 2.7 .1 5.4 .2 2.8 .6 5.4 .4 2.7 1 5.3 1.3 5.3 .8 2.7 1.7 5.2 2 5.1 1.1 2.5 1.2 2.6 2.5 4.9 1.3 2.4 2.9 4.8 1.6 2.3 3.2 4.6 1.7 2.2 3.5 4.4 1.9 2.1 3.9 4.1 2 2 4.1 3.9 2.1 1.8 4.4 3.7 2.3 1.7 4.6 3.4 2.4 1.6 4.8 3 2.5 1.5 5 2.8 2.6 1.3 5.2 2.6 2.6 1.2 5.4 2.2 5.4 2.1 3.8 1.3 4.8 14.3 3.9 10.7 2 8.5 1.4 5.4 1.6 5.3-6.7-1.4-6.9-1.7-6.9-2-6.8-2.2-6.8-2.4-6.7-2.7-6.6-2.9-3.3-1.5-6.5-3.3-6.3-3.6-6.3-3.7-3-2-6-4.2-5.9-4.4-5.6-4.7-2.8-2.4-5.4-5-5.1-5.3-5-5.5-2.3-2.9-4.6-5.8-2.2-3-4.2-6.2-1.9-3.2-3.7-6.4-3.4-6.7-3.1-6.9-1.4-3.4-2.6-7.1-1.1-3.6-2-7.3-.9-3.7-.7-3.7-.7-3.7-.6-3.8-.4-3.7-.4-3.8-.2-3.8-.2-3.8 0-3.8 .1-3.8 .1-3.8 .3-3.9 .4-3.7 .5-3.8 .6-3.8 .7-3.8 .9-3.7 .9-3.7 1-3.7 1.2-3.6 1.2-3.6 1.4-3.6 1.4-3.6 1.5-3.5 1.7-3.4 1.7-3.4 1.9-3.3 1.9-3.3 2-3.3 2.1-3.1 2.2-3.1 2.3-3.1 2.4-3 2.4-2.9 2.6-2.8 2.6-2.8 2.6-2.7 2.8-2.6 2.8-2.5 5.8-4.9 3-2.3 6.1-4.3 3.2-2.1 6.4-3.9 3.3-1.8 6.7-3.3 3.4-1.6 6.9-2.8 7-2.6 6.8-2.1-1.2 5.5-1.1 5.5-.8 5.5-.4 3.2-1.6 5.4-1.7 5.9-1.4 6-1.2 6z"/>
  <path fill="#007270" fill-rule="evenodd" d="M206.4 352.8l15.6 .2 32.6-.1 35.8 .1 12.7-.2 9.4-.2 9.2-.5 9.2-.8 6-.6 5.9-.9 5.9-.9 8.7-1.8 8.6-2.2 8.4-2.5 5.5-1.9 5.5-2.2 5.3-2.3 2.6-1.2 2.6-1.3 5.1-2.6 2.6-1.4 4.7-2.9 1.3 5 1.1 5.1 .9 5.2 .7 5.2 .4 5.4 .1 2.8 .1 2.7-.1 5.6-.4 5.7-5.4 2.6-3.3 1.5-6.7 2.7-3.4 1.3-6.8 2.4-6.9 2.1-6.8 1.9-3.5 .9-7 1.6-6.9 1.3-7 1.2-7 .9-10.4 1.1-10.4 .8-10.2 .4-6.8 .2-10.1 .1-39.2-.1-27.5 .1-3.2-4.9-3-4.9-2.8-4.9-2.7-5-2.4-4.9-2.3-5-2.2-4.9zM454.8 277.3l2.4-4.9 1.1-2.5 2-5.1 .9-2.6 1.7-5.3 .7-2.6 1.2-5.3 .4-2.7 .8-5.4 .3-2.7 .3-5.4 0-2.8-.1-5.4-.2-2.7-.3-2.6-.7-5.4-1.1-5.3-.6-2.6-.7-2.6-1.7-5.1-.9-2.5-2.1-5-2.4-4.9-1.3-2.3-1.3-2.4-2.9-4.5-1.6-2.2-3.3-4.3-3.5-4.2-1.8-2-2-1.9-3.9-3.7-4.2-3.6-2.2-1.7-4.4-3.2-4.7-2.9-2.4-1.4-2.4-1.4-4.9-2.5-2.5-1.2-5.2-2.1-2.6-1-5.3-1.8-2.7-.8-5.4-1.4-2.8-.6-5.5-1.1-2.8-.5-5.6-.7-2.8-.2-5.7-.4-2.9 0-5.7 0-2.8 .1-5.8 .3-2.8 .3-5.8 .7-2.8 .4-5.7 1-2.8 .6-5.7 1.3-5.6 1.6-3.8 1.1-12.3-8.7-9.4-6.4-6.7-5.7-4.3-3.5-4.4-3.5 6.2-2.7 6.6-2.7 6.8-2.4 6.8-2.3 6.9-2 7-1.8 7.1-1.5 3.5-.7 7.2-1.1 7.2-.9 7.3-.6 3.6-.2 7.3-.1 7.3 .1 7.4 .4 3.6 .4 7.3 .9 7.3 1.2 7.2 1.6 3.6 .9 7.2 2 3.5 1.2 7 2.5 3.4 1.4 6.9 3.1 6.6 3.4 6.6 3.7 3.1 2 6.3 4.2 3 2.3 5.9 4.7 2.9 2.4 2.8 2.6 2.7 2.6 2.6 2.7 2.6 2.8 2.5 2.9 2.5 2.9 2.3 3 2.3 3 2.2 3.2 2.1 3.2 2 3.2 1.9 3.3 1.8 3.4 1.7 3.4 1.7 3.4 1.5 3.5 1.4 3.6 1.3 3.5 1.3 3.7 1.1 3.6 1 3.7 .9 3.7 .8 3.8 .7 3.7 .6 3.8 .5 3.8 .3 3.8 .3 3.8 .2 3.8 0 3.8-.1 3.8-.1 3.8-.3 3.8-.4 3.8-.4 3.7-.6 3.8-.7 3.7-.8 3.7-1.8 7.4-1.1 3.6-2.4 7.1-1.3 3.5-3 6.9-1.6 3.4-3.4 6.7-1.8 3.2-3.9 6.4-4.2 6.2-4.3 5.6-2.2-5.1-2.4-5-2.6-5-1.5-2.9-1.8-5.2-2.2-5.7-2.4-5.7-2.5-5.6zM246 169.4l-12.7 9-26.3 19.3-29.1 21-10.2 7.5-7.4 5.7-7.2 5.9-6.9 5.9-4.5 4.1-4.3 4.2-4.2 4.2-6 6.6-5.7 6.8-5.3 7-3.3 4.8-3.2 4.9-1.5 2.5-2.8 5-2.7 5.1-1.3 2.6-1.2 2.7-2.2 5-3.9-3.2-3.9-3.5-3.8-3.6-3.6-3.9-3.6-4.1-1.7-2.2-1.6-2.2-3.2-4.6-3.1-4.8 2.9-5.3 1.8-3.1 3.8-6.2 2-3 4.1-5.9 4.3-5.8 4.4-5.6 2.3-2.7 4.7-5.4 4.9-5.2 4.9-5 5.1-4.9 7.8-7 7.9-6.7 8.1-6.4 5.4-4.1 8-6 31.8-23 22.2-16.2 5.5 2.1 5.3 2.2 5.2 2.3 5 2.5 4.9 2.5 4.8 2.7 4.7 2.7z"/>
  <path fill="#47156f" fill-rule="evenodd" d="M249.7 312.7l32.5 0 2.1-.1 2.9-.2 1.8-.3 1.7-.3 1.6-.5 1.5-.5 2.2-.9 2.3-1.1 4-2.2-3.4 23.3-77.8 0 1.8-2.3 1.1-1.7 1-1.6 .8-1.5 .4-1.1 .3-1.3 .3-1.3 .2-2.2 0-90.7-.1-2.2-.1-1.4-.5-1.9-.4-1.2-.7-1.6-1.3-2.2-1.6-2.2-1.3-1.8 68.8 0 0 23.3-3.2-2.5-2.9-1.9-1-.5-1.1-.4-1.1-.3-1.3-.3-2.7-.2-26.8 0z"/>
  <path fill="#fd8c68" fill-rule="evenodd" d="M254.9 257.9l47.4 0 0 23-47.4 0z"/>
</svg>
